<?xml version="1.0" encoding="utf-8"?>
<!-- Generated by IcoMoon.io -->
<svg version="1.1" xmlns="http://www.w3.org/2000/svg" xmlns:xlink="http://www.w3.org/1999/xlink" width="680" height="216" viewBox="0 0 680 216">
<svg id="icon-bootstrap" width="100" height="100" viewBox="0 0 100 100" x="0" y="0">
<path fill="#5b4282" d="M7.446 87.958h3.251c1.481 0 2.557 0.211 3.226 0.633s1.004 1.092 1.004 2.012c0 0.624-0.147 1.136-0.44 1.536s-0.683 0.641-1.169 0.722v0.071c0.662 0.148 1.14 0.424 1.433 0.829s0.44 0.943 0.44 1.615c0 0.953-0.344 1.696-1.033 2.23s-1.623 0.8-2.805 0.8h-3.907v-10.447zM9.661 92.095h1.286c0.6 0 1.035-0.093 1.304-0.278s0.404-0.493 0.404-0.922c0-0.4-0.146-0.687-0.439-0.861s-0.756-0.261-1.39-0.261h-1.165v2.322zM9.661 93.853v2.723h1.444c0.609 0 1.059-0.116 1.351-0.35s0.436-0.591 0.436-1.072c0-0.866-0.62-1.301-1.858-1.301h-1.373zM26.759 93.167c0 1.729-0.429 3.059-1.286 3.988s-2.086 1.394-3.687 1.394-2.83-0.465-3.687-1.394c-0.858-0.929-1.286-2.263-1.286-4.002s0.43-3.066 1.29-3.984 2.092-1.376 3.698-1.376 2.833 0.463 3.684 1.386c0.849 0.924 1.274 2.254 1.274 3.987zM19.136 93.167c0 1.167 0.221 2.046 0.665 2.637s1.105 0.886 1.986 0.886c1.767 0 2.651-1.174 2.651-3.523 0-2.353-0.879-3.53-2.637-3.53-0.881 0-1.546 0.296-1.994 0.89s-0.671 1.473-0.671 2.64zM38.407 93.167c0 1.729-0.429 3.059-1.286 3.988s-2.086 1.394-3.687 1.394-2.83-0.465-3.687-1.394c-0.858-0.929-1.286-2.263-1.286-4.002s0.43-3.066 1.29-3.984 2.092-1.376 3.698-1.376 2.833 0.463 3.684 1.386c0.848 0.924 1.274 2.254 1.274 3.987zM30.783 93.167c0 1.167 0.221 2.046 0.665 2.637s1.105 0.886 1.986 0.886c1.767 0 2.651-1.174 2.651-3.523 0-2.353-0.879-3.53-2.637-3.53-0.881 0-1.546 0.296-1.994 0.89s-0.671 1.473-0.671 2.64zM44.602 98.405h-2.215v-8.603h-2.837v-1.844h7.888v1.844h-2.837v8.603zM55.212 95.504c0 0.944-0.339 1.687-1.018 2.23s-1.623 0.815-2.833 0.815c-1.115 0-2.101-0.21-2.958-0.629v-2.058c0.705 0.314 1.302 0.536 1.79 0.665s0.934 0.193 1.34 0.193c0.486 0 0.859-0.093 1.118-0.278s0.39-0.462 0.39-0.829c0-0.205-0.057-0.387-0.171-0.547s-0.282-0.313-0.504-0.461-0.673-0.384-1.354-0.707c-0.638-0.3-1.117-0.588-1.436-0.865s-0.574-0.598-0.765-0.964c-0.191-0.367-0.286-0.796-0.286-1.286 0-0.924 0.313-1.651 0.94-2.18s1.492-0.793 2.598-0.793c0.543 0 1.061 0.064 1.554 0.193s1.009 0.309 1.547 0.543l-0.715 1.722c-0.557-0.228-1.018-0.388-1.383-0.479s-0.723-0.136-1.075-0.136c-0.42 0-0.741 0.098-0.965 0.293s-0.336 0.45-0.336 0.765c0 0.195 0.045 0.366 0.136 0.511s0.234 0.286 0.432 0.422c0.198 0.136 0.666 0.38 1.404 0.733 0.977 0.467 1.646 0.935 2.008 1.404s0.542 1.042 0.542 1.723zM61.136 98.405h-2.215v-8.603h-2.837v-1.844h7.888v1.844h-2.837v8.603zM67.795 94.396v4.009h-2.215v-10.447h3.044c1.42 0 2.47 0.259 3.151 0.775s1.022 1.302 1.022 2.355c0 0.615-0.169 1.161-0.507 1.64s-0.817 0.854-1.436 1.125c1.572 2.348 2.596 3.866 3.073 4.552h-2.458l-2.494-4.009h-1.18zM67.795 92.595h0.715c0.7 0 1.217-0.116 1.551-0.35s0.5-0.601 0.5-1.101c0-0.495-0.17-0.848-0.511-1.058s-0.868-0.314-1.583-0.314h-0.672v2.823zM81.636 98.405l-0.758-2.487h-3.809l-0.758 2.487h-2.387l3.687-10.489h2.708l3.702 10.489h-2.385zM80.349 94.060c-0.7-2.253-1.095-3.527-1.183-3.823s-0.151-0.529-0.189-0.7c-0.157 0.609-0.607 2.117-1.351 4.523h2.723zM92.554 91.216c0 1.124-0.352 1.984-1.054 2.579-0.702 0.596-1.702 0.894-2.998 0.894h-0.95v3.716h-2.215v-10.447h3.337c1.267 0 2.23 0.273 2.891 0.818s0.989 1.359 0.989 2.441zM87.552 92.874h0.729c0.681 0 1.191-0.134 1.529-0.404s0.507-0.661 0.507-1.175c0-0.52-0.142-0.903-0.425-1.151s-0.728-0.372-1.333-0.372h-1.008v3.102zM57.774 44.343c-1.549-0.51-3.78-0.593-6.691-0.593h-10.458v15.625h11.269c1.955 0 3.327-0.195 4.118-0.341 1.393-0.248 2.558-0.727 3.494-1.309 0.936-0.581 1.705-1.46 2.309-2.573s0.905-2.412 0.905-3.868c0-1.706-0.437-3.109-1.31-4.367s-2.084-2.064-3.634-2.573zM56.168 37.615c1.539-0.458 2.699-1.286 3.478-2.346 0.78-1.060 1.17-2.424 1.17-4.027 0-1.518-0.364-2.871-1.092-4.027s-1.768-1.938-3.119-2.365c-1.353-0.425-3.672-0.632-6.958-0.632h-9.023v14.063h9.771c2.684 0 4.607-0.312 5.772-0.666zM91.406 12.598c0-6.095-4.941-11.036-11.037-11.036h-60.739c-6.095 0-11.037 4.941-11.037 11.036v60.741c0 6.095 4.941 11.036 11.037 11.036h60.739c6.095 0 11.037-4.941 11.037-11.036v-60.741zM67.633 57.242c-0.904 1.841-2.023 3.26-3.353 4.259s-3.001 1.911-5.008 2.42c-2.007 0.51-4.466 0.923-7.378 0.923h-17.519v-46.094h17.238c3.495 0 6.296 0.484 8.407 1.409s3.764 2.36 4.962 4.284c1.195 1.924 1.794 3.942 1.794 6.043 0 1.955-0.531 3.798-1.591 5.524-1.061 1.727-2.662 3.121-4.805 4.181 2.766 0.811 4.893 2.196 6.38 4.151s2.23 4.264 2.23 6.927c-0.001 2.142-0.452 4.134-1.358 5.973z"></path>
</svg>
<svg id="icon-css" width="100" height="100" viewBox="0 0 100 100" x="116" y="0">
<path fill="#131313" d="M69.714 4.575h-5.769l5.999 6.51v3.099h-12.356v-3.629h5.998l-5.998-6.51v-3.102h12.126v3.632zM55.138 4.575h-5.769l5.999 6.51v3.099h-12.357v-3.629h5.999l-5.999-6.51v-3.102h12.127v3.632zM40.705 4.723h-6.225v5.68h6.225v3.78h-10.65v-13.241h10.65v3.78z"></path>
<path fill="#1572b6" d="M21.573 91.177l-6.326-70.948h69.505l-6.331 70.936-28.464 7.892-28.384-7.88z"></path>
<path fill="#33a9dc" d="M50.001 93.025l22.999-6.377 5.411-60.618h-28.41v66.995z"></path>
<path fill="#fff" d="M50 51.734h11.514l0.796-8.91h-12.31v-8.702h21.82l-0.209 2.334-2.138 23.978h-19.473v-8.701z"></path>
<path fill="#ebebeb" d="M50.052 74.333l-0.038 0.011-9.691-2.617-0.62-6.94h-8.734l1.22 13.662 17.823 4.948 0.041-0.012v-9.052z"></path>
<path fill="#fff" d="M60.775 60.067l-1.048 11.653-9.705 2.62v9.053l17.838-4.944 0.131-1.47 1.514-16.912h-8.73z"></path>
<path fill="#ebebeb" d="M50.030 34.123v8.701h-21.018l-0.175-1.955-0.396-4.411-0.209-2.334h21.798zM50 51.735v8.702h-9.568l-0.174-1.955-0.397-4.412-0.209-2.334h10.348z"></path>
</svg>
<svg id="icon-github" width="100" height="100" viewBox="0 0 100 100" x="232" y="0">
<path fill="#181616" d="M50 1.181c-18.354 0-33.238 14.88-33.238 33.238 0 14.685 9.523 27.145 22.73 31.539 1.661 0.308 2.271-0.721 2.271-1.599 0-0.792-0.031-3.411-0.045-6.188-9.248 2.010-11.198-3.922-11.198-3.922-1.512-3.842-3.691-4.864-3.691-4.864-3.016-2.063 0.227-2.020 0.227-2.020 3.338 0.234 5.096 3.426 5.096 3.426 2.964 5.081 7.776 3.612 9.672 2.763 0.299-2.148 1.16-3.616 2.111-4.445-7.383-0.84-15.144-3.691-15.144-16.427 0-3.629 1.298-6.594 3.425-8.922-0.345-0.837-1.483-4.219 0.322-8.797 0 0 2.791-0.892 9.141 3.409 2.652-0.737 5.496-1.106 8.32-1.119 2.825 0.013 5.67 0.383 8.327 1.119 6.344-4.3 9.131-3.408 9.131-3.408 1.809 4.578 0.672 7.959 0.327 8.797 2.131 2.327 3.42 5.292 3.42 8.922 0 12.766-7.776 15.577-15.177 16.398 1.192 1.031 2.255 3.055 2.255 6.156 0 4.447-0.038 8.026-0.038 9.12 0 0.883 0.598 1.92 2.283 1.594 13.2-4.4 22.711-16.855 22.711-31.535 0.002-18.354-14.88-33.235-33.237-33.235z"></path>
<path fill="#181616" d="M29.352 48.903c-0.074 0.166-0.334 0.215-0.57 0.102-0.242-0.109-0.377-0.334-0.298-0.5 0.070-0.169 0.331-0.216 0.573-0.103 0.242 0.109 0.38 0.336 0.297 0.502zM30.698 50.406c-0.159 0.146-0.469 0.078-0.68-0.155-0.217-0.232-0.258-0.542-0.097-0.691 0.162-0.147 0.463-0.078 0.68 0.154 0.219 0.234 0.262 0.541 0.096 0.691zM32.008 52.319c-0.203 0.142-0.537 0.009-0.742-0.287-0.205-0.295-0.205-0.648 0.004-0.791 0.206-0.142 0.534-0.014 0.742 0.279 0.205 0.301 0.205 0.656-0.004 0.8zM33.803 54.169c-0.182 0.201-0.57 0.147-0.854-0.127-0.291-0.268-0.371-0.648-0.189-0.849 0.185-0.201 0.575-0.145 0.861 0.127 0.289 0.267 0.377 0.648 0.182 0.848zM36.281 55.242c-0.081 0.261-0.455 0.379-0.831 0.269-0.377-0.114-0.622-0.419-0.547-0.681 0.078-0.263 0.455-0.385 0.834-0.267 0.375 0.113 0.621 0.414 0.544 0.68zM39 55.441c0.010 0.273-0.309 0.502-0.705 0.506-0.397 0.009-0.719-0.213-0.723-0.483 0-0.277 0.313-0.502 0.709-0.508 0.395-0.008 0.719 0.213 0.719 0.484zM41.531 55.011c0.047 0.267-0.227 0.542-0.62 0.615-0.386 0.072-0.742-0.094-0.792-0.359-0.047-0.273 0.232-0.547 0.617-0.619 0.393-0.069 0.745 0.092 0.795 0.364z"></path>
<path fill="#100e0f" d="M19.418 84.611h-8.359c-0.216 0-0.391 0.175-0.391 0.391v4.088c0 0.216 0.175 0.391 0.391 0.391h3.26v5.078s-0.732 0.25-2.758 0.25c-2.387 0-5.724-0.872-5.724-8.209s3.475-8.305 6.738-8.305c2.823 0 4.039 0.497 4.814 0.737 0.242 0.073 0.469-0.169 0.469-0.384l0.932-3.949c0-0.003 0-0.006 0-0.009 0-0.121-0.059-0.228-0.149-0.295-0.316-0.226-2.233-1.298-7.078-1.298-5.581 0-11.306 2.373-11.306 13.789 0 11.414 6.555 13.115 12.078 13.115 4.573 0 7.348-1.955 7.348-1.955 0.114-0.063 0.127-0.223 0.127-0.297v-12.747c0-0.216-0.175-0.391-0.391-0.391zM62.114 74.070h-4.708c-0.215 0.001-0.389 0.175-0.389 0.391 0 0.001 0 0.002 0 0.002l0.002 9.097h-7.337v-9.097c0-0.001 0-0.002 0-0.002 0-0.215-0.174-0.389-0.388-0.391h-4.707c-0.215 0.001-0.389 0.175-0.389 0.391 0 0.001 0 0.002 0 0.002v24.633c0 0.216 0.175 0.393 0.389 0.393h4.707c0.215-0.001 0.388-0.176 0.388-0.391 0-0.001 0-0.002 0-0.003v-10.536h7.338l-0.013 10.536c0 0.217 0.175 0.394 0.391 0.394h4.717c0.215-0.001 0.388-0.176 0.388-0.391 0-0.001 0-0.002 0-0.003v-24.633c0-0.217-0.172-0.392-0.388-0.392zM25.266 74.63c-1.675 0-3.034 1.37-3.034 3.065 0 1.693 1.359 3.066 3.034 3.066 1.677 0 3.035-1.373 3.035-3.066 0-1.695-1.359-3.065-3.035-3.065zM27.575 82.137h-4.692c-0.216 0-0.408 0.222-0.408 0.438v16.291c0 0.479 0.298 0.621 0.684 0.621h4.227c0.465 0 0.578-0.228 0.578-0.629v-16.327c0-0 0-0.001 0-0.002 0-0.215-0.174-0.39-0.389-0.391zM80.392 82.173h-4.672c-0.214 0.002-0.387 0.176-0.387 0.391 0 0.001 0 0.002 0 0.003v12.078s-1.188 0.867-2.871 0.867-2.13-0.763-2.13-2.412v-10.533c0-0.001 0-0.002 0-0.003 0-0.215-0.174-0.389-0.388-0.391h-4.741c-0.215 0.002-0.389 0.177-0.389 0.392 0 0.001 0 0.001 0 0.002v11.33c0 4.898 2.73 6.097 6.486 6.097 3.081 0 5.566-1.703 5.566-1.703s0.117 0.898 0.172 1.004c0.055 0.106 0.193 0.213 0.344 0.213l3.016-0.013c0.216-0.001 0.391-0.176 0.391-0.392 0-0.001 0-0.001 0-0.002l-0.002-16.536c-0.001-0.216-0.175-0.39-0.39-0.392zM93.159 81.62c-2.653 0-4.458 1.184-4.458 1.184v-8.341c0-0.001 0-0.002 0-0.002 0-0.215-0.174-0.389-0.388-0.391h-4.72c0 0 0 0 0 0-0.216 0-0.391 0.175-0.391 0.391 0 0.001 0 0.002 0 0.002v24.633c0 0.001 0 0.002 0 0.002 0 0.216 0.175 0.391 0.391 0.391 0 0 0 0 0 0h3.275c0.148 0 0.259-0.076 0.341-0.209 0.080-0.133 0.198-1.136 0.198-1.136s1.93 1.828 5.584 1.828c4.289 0 6.75-2.175 6.75-9.767s-3.93-8.584-6.584-8.584zM91.316 95.498c-1.62-0.049-2.719-0.784-2.719-0.784v-7.801s1.084-0.664 2.414-0.784c1.682-0.151 3.303 0.358 3.303 4.37 0 4.232-0.73 5.067-2.998 4.998zM41.559 95.406c-0.205 0-0.732 0.084-1.273 0.084-1.734 0-2.323-0.806-2.323-1.85v-6.927h3.531c0 0 0 0 0 0 0.216 0 0.391-0.175 0.391-0.391 0-0.001 0-0.002 0-0.003v-3.794c0-0 0-0.001 0-0.002 0-0.216-0.175-0.391-0.391-0.391 0 0 0 0 0 0h-3.531l-0.005-4.664c0-0.177-0.091-0.266-0.295-0.266h-4.813c-0.186 0-0.287 0.083-0.287 0.262v4.82s-2.412 0.582-2.574 0.629c-0.164 0.049-0.281 0.198-0.281 0.375v3.029c0 0.001 0 0.002 0 0.002 0 0.215 0.174 0.389 0.388 0.391h2.467v7.287c0 5.414 3.797 5.945 6.359 5.945 1.17 0 2.57-0.375 2.802-0.461 0.141-0.052 0.221-0.197 0.221-0.354l0.003-3.332c-0.003-0.215-0.176-0.388-0.39-0.392z"></path>
</svg>
<svg id="icon-heroku" width="100" height="100" viewBox="0 0 100 100" x="348" y="0">
<path fill="#6762a6" d="M30.703 69.531h41.641c3.594 0 6.484-2.891 6.484-6.484v-55c0-3.594-2.891-6.484-6.484-6.484h-41.641c-3.594 0-6.484 2.891-6.484 6.484v54.922c0 3.672 2.891 6.563 6.484 6.563zM60.547 10.938h8.438s-1.406 3.906-5.859 9.375h-8.125c2.891-3.125 5.547-9.375 5.547-9.375zM44.531 10.625v16.172s21.094-8.438 21.094 6.406v26.953h-6.875l-0.156 0.078v-27.187s1.797-6.484-21.719 2.656c-0.078 0.078-0.078-25.078-0.078-25.078h7.734zM36.719 44.688l7.734 7.734-7.734 7.734v-15.469zM27.578 80.313c-3.125 0-5.703 0.391-7.578 1.094-0.703 2.5-1.016 5.156-1.016 8.125 0 5.469 0.938 8.828 7.188 8.828 2.891 0 5.312-0.859 7.266-1.797l-0.625-2.812c-1.875 0.703-4.297 1.328-6.406 1.328-2.734 0-3.594-0.703-3.75-5.391h11.719v-1.719c0-4.766-1.719-7.656-6.797-7.656zM22.656 87.5c0.078-2.344 0.234-2.969 0.391-3.672 1.484-0.313 3.203-0.313 4.375-0.313 2.578 0 3.047 1.641 3.047 3.984h-7.813zM10.859 80.313c-2.109 0-3.828 0.547-6.172 1.172v-8.047h-3.125v24.219h3.125v-12.969c2.344-0.781 3.906-1.172 5.469-1.172 0.781 0 1.563 0.391 1.563 1.328v13.203l0.313-0.313h3.594v-12.344c0-2.969-1.406-5.078-4.766-5.078zM95.313 80.469v13.594c-2.344 0.781-4.375 1.172-6.016 1.172-0.781 0-1.797-0.391-1.797-1.328v-13.438h-3.125v13.047c0 2.891 1.016 4.922 4.375 4.922 2.109 0 5.781-0.313 9.688-2.734v-15.234h-3.125zM81.094 80.469h-4.219c-1.016 2.344-2.5 5.469-4.375 7.031h-1.406v-14.063h-3.906v24.219h3.906v-7.813h1.641c2.188 2.344 3.594 5.469 4.688 7.813h4.375c-1.641-3.125-3.516-6.563-6.016-9.688 2.031-2.109 3.906-4.375 5.313-7.5zM37.5 97.656h3.125v-12.969c1.563-0.625 3.906-0.859 5.469-0.938v-3.125c-2.344 0.156-5.469 0.703-8.594 2.422v14.609zM55.781 80.313c-4.766 0-8.047 2.5-8.047 9.141 0 6.25 2.5 8.984 8.047 8.984 4.766 0 8.047-2.5 8.047-9.141 0-6.25-2.5-8.984-8.047-8.984zM55.781 95.313c-3.125 0-4.453-1.094-4.453-5.859 0-4.375 1.563-6.016 4.453-6.016 3.125 0 4.453 1.094 4.453 5.859-0.078 4.375-1.641 6.016-4.453 6.016z"></path>
</svg>
<svg id="icon-html" width="100" height="100" viewBox="0 0 100 100" x="464" y="0">
<path fill="#e44d26" d="M21.761 90.902l-6.284-70.477h69.045l-6.29 70.466-28.275 7.838z"></path>
<path fill="#f16529" d="M50 92.737l22.847-6.334 5.376-60.216h-28.223z"></path>
<path fill="#ebebeb" d="M50 52.327h-11.438l-0.789-8.852h12.227v-8.644h-21.674l0.206 2.32 2.125 23.82h19.343zM50 74.774l-0.038 0.010-9.626-2.6-0.616-6.893h-8.677l1.211 13.572 17.706 4.916 0.040-0.012z"></path>
<path fill="#000" d="M21.902 1.271h4.392v4.341h4.019v-4.341h4.393v13.142h-4.393v-4.401h-4.018v4.401h-4.393v-13.142zM40.481 5.63h-3.867v-4.359h12.129v4.359h-3.869v8.784h-4.393v-8.784zM50.668 1.271h4.58l2.818 4.618 2.815-4.618h4.582v13.142h-4.376v-6.514l-3.021 4.673h-0.077l-3.023-4.673v6.514h-4.298v-13.142zM67.649 1.271h4.394v8.798h6.177v4.345h-10.571v-13.143z"></path>
<path fill="#fff" d="M49.97 52.327v8.643h10.644l-1.003 11.21-9.641 2.602v8.992l17.72-4.911 0.13-1.461 2.031-22.755 0.211-2.32h-2.33zM49.97 34.83v8.644h20.879l0.173-1.943 0.395-4.381 0.207-2.32z"></path>
</svg>
<svg id="icon-jquery" width="100" height="100" viewBox="0 0 100 100" x="580" y="0">
<path fill="#0868ac" d="M21.686 15.954c-5.744 8.254-5.029 18.994-0.641 27.766l0.321 0.623 0.205 0.395 0.128 0.227 0.229 0.409c0.136 0.24 0.276 0.478 0.419 0.718l0.239 0.394c0.159 0.255 0.32 0.508 0.486 0.76l0.207 0.32c0.229 0.341 0.462 0.681 0.704 1.016l0.020 0.026 0.119 0.16c0.209 0.288 0.423 0.572 0.641 0.854l0.241 0.307c0.195 0.245 0.392 0.487 0.593 0.73l0.227 0.27c0.27 0.317 0.545 0.634 0.826 0.944l0.016 0.017 0.032 0.035c0.274 0.299 0.555 0.592 0.84 0.885l0.269 0.271c0.22 0.222 0.445 0.44 0.67 0.657l0.274 0.261c0.302 0.284 0.607 0.564 0.919 0.836l0.014 0.013 0.16 0.136c0.274 0.238 0.553 0.473 0.834 0.705l0.345 0.276c0.23 0.184 0.462 0.366 0.695 0.544l0.373 0.282c0.258 0.19 0.518 0.377 0.78 0.56l0.362 0.258c0.248 0.172 0.504 0.337 0.758 0.502l0.328 0.219c0.391 0.246 0.787 0.491 1.187 0.727l0.328 0.185c0.295 0.17 0.591 0.337 0.891 0.499l0.493 0.255 0.637 0.331 0.147 0.071 0.261 0.126c0.334 0.159 0.67 0.316 1.010 0.468l0.213 0.095c0.389 0.17 0.782 0.334 1.178 0.491l0.288 0.113c0.366 0.142 0.738 0.28 1.112 0.412l0.14 0.048c0.409 0.144 0.823 0.276 1.24 0.406l0.299 0.089c0.423 0.128 0.843 0.28 1.28 0.361 27.776 5.065 35.844-16.691 35.844-16.691-6.777 8.828-18.804 11.156-30.2 8.564-0.432-0.098-0.851-0.233-1.272-0.356l-0.317-0.097c-0.411-0.126-0.82-0.258-1.225-0.398l-0.168-0.060c-0.363-0.128-0.722-0.263-1.080-0.401l-0.303-0.119c-0.391-0.155-0.781-0.316-1.166-0.484l-0.233-0.104c-0.33-0.149-0.658-0.3-0.984-0.457l-0.284-0.137c-0.255-0.124-0.508-0.256-0.761-0.387l-0.507-0.266c-0.309-0.164-0.611-0.336-0.912-0.511l-0.308-0.171c-0.401-0.237-0.796-0.48-1.188-0.728l-0.32-0.213c-0.284-0.183-0.566-0.37-0.845-0.562l-0.273-0.191c-0.269-0.189-0.535-0.382-0.798-0.577l-0.354-0.268c-0.242-0.185-0.483-0.372-0.72-0.563l-0.321-0.258c-0.303-0.248-0.602-0.5-0.898-0.757l-0.098-0.082c-0.32-0.28-0.634-0.569-0.944-0.858l-0.266-0.256c-0.23-0.218-0.456-0.438-0.678-0.665l-0.266-0.266c-0.283-0.289-0.56-0.582-0.832-0.88l-0.041-0.045c-0.288-0.314-0.569-0.635-0.844-0.96l-0.221-0.262c-0.205-0.247-0.409-0.498-0.607-0.751l-0.223-0.277c-0.24-0.31-0.473-0.62-0.702-0.934-6.327-8.63-8.6-20.534-3.543-30.309zM39.514 8.999c-4.153 5.977-3.928 13.979-0.688 20.299 0.543 1.059 1.154 2.088 1.837 3.066 0.622 0.893 1.313 1.954 2.138 2.67 0.299 0.33 0.612 0.652 0.932 0.967l0.245 0.243c0.31 0.301 0.626 0.597 0.952 0.884l0.039 0.034 0.009 0.009c0.361 0.316 0.734 0.62 1.112 0.92l0.252 0.197c0.38 0.291 0.766 0.577 1.163 0.849l0.034 0.026 0.531 0.349 0.252 0.166c0.284 0.182 0.57 0.359 0.862 0.528l0.122 0.072c0.252 0.145 0.506 0.287 0.762 0.426l0.804 0.417 0.080 0.037c0.366 0.18 0.735 0.354 1.113 0.518l0.245 0.102c0.302 0.127 0.605 0.252 0.912 0.37l0.391 0.144c0.278 0.103 0.556 0.198 0.838 0.291l0.378 0.121c0.399 0.123 0.795 0.28 1.21 0.35 21.445 3.552 26.396-12.959 26.396-12.959-4.462 6.428-13.105 9.495-22.328 7.101-0.409-0.108-0.814-0.225-1.215-0.351l-0.365-0.118c-0.285-0.091-0.569-0.19-0.849-0.292l-0.384-0.143c-0.308-0.119-0.613-0.241-0.915-0.37l-0.246-0.104c-0.379-0.165-0.752-0.339-1.119-0.52l-0.561-0.285-0.323-0.166c-0.239-0.13-0.477-0.264-0.71-0.402l-0.17-0.096c-0.291-0.17-0.577-0.344-0.859-0.525l-0.259-0.173-0.556-0.369c-0.395-0.273-0.78-0.558-1.159-0.848l-0.261-0.206c-4.037-3.187-7.237-7.543-8.758-12.482-1.595-5.123-1.251-10.873 1.512-15.54zM54.509 3.803c-2.448 3.603-2.689 8.079-0.99 12.059 1.791 4.224 5.463 7.537 9.748 9.109l0.533 0.184 0.234 0.075c0.252 0.080 0.503 0.172 0.764 0.22 11.841 2.288 15.053-6.076 15.908-7.308-2.813 4.051-7.541 5.023-13.343 3.615-0.458-0.111-0.962-0.277-1.403-0.434-0.566-0.202-1.124-0.432-1.667-0.692-1.030-0.495-2.012-1.095-2.923-1.783-5.191-3.939-8.416-11.452-5.028-17.572z"></path>
<path fill="#131b28" d="M51.843 75.23h-3.302c-0.183 0-0.365 0.147-0.404 0.326l-2.344 10.844c-0.038 0.179-0.22 0.326-0.403 0.326h-2.337c-2.312 0-2.045-1.599-1.571-3.79l0.014-0.066 0.052-0.277 0.009-0.052 0.105-0.563 0.113-0.602 0.12-0.613 0.533-2.603 0.534-2.603c0.037-0.18-0.084-0.327-0.266-0.327h-3.388c-0.183 0-0.364 0.147-0.402 0.327l-0.729 3.456-0.728 3.457-0.002 0.005-0.067 0.322c-0.839 3.83-0.617 7.484 3.944 7.599l0.133 0.002h7.159c0.183 0 0.365-0.147 0.403-0.326l3.088-14.515c0.038-0.18-0.080-0.326-0.264-0.327zM16.487 75.192h-3.625c-0.184 0-0.366 0.147-0.407 0.325l-0.688 3.034c-0.040 0.179 0.077 0.325 0.26 0.325h3.653c0.184 0 0.366-0.147 0.405-0.326l0.664-3.033c0.038-0.179-0.079-0.326-0.262-0.326zM15.435 79.914h-3.654c-0.183 0-0.366 0.147-0.407 0.325l-0.513 2.273-0.512 2.273-0.143 0.652-0.493 2.32-0.492 2.321c-0.038 0.179-0.117 0.468-0.176 0.641 0 0-0.683 2.031-1.83 2.008l-0.144-0.003-0.994-0.018c-0.183-0.002-0.366 0.141-0.409 0.318l-0.379 1.593-0.378 1.592c-0.043 0.178 0.073 0.325 0.255 0.328 0.651 0.008 2.109 0.024 2.991 0.024 2.866 0 4.378-1.588 5.346-6.159l2.197-10.165c0.038-0.177-0.080-0.324-0.263-0.324zM82.714 78.684l-0.152-0.626-0.149-0.641-0.076-0.323c-0.297-1.154-1.168-1.819-3.060-1.819l-8.71-0.007c-0.183 0-0.364 0.147-0.402 0.326l-0.135 0.638-0.159 0.753-0.045 0.212-2.679 12.548c-0.039 0.18-0.052 0.4-0.030 0.489s0.374 0.163 0.557 0.163h2.753c0.184 0 0.416-0.033 0.516-0.073s0.248-0.401 0.284-0.58l0.489-2.421 0.491-2.426 0.066-0.323 1.118-5.237c0.039-0.179 0.22-0.325 0.402-0.326l8.663-0.004c0.184 0.002 0.299-0.145 0.258-0.323zM93.866 73.028l-0.667 0.002h-2.773c-0.184 0-0.419 0.124-0.521 0.276l-6.132 8.983c-0.103 0.152-0.221 0.13-0.262-0.048l-0.452-1.979c-0.041-0.179-0.224-0.325-0.408-0.325h-3.941c-0.184 0-0.292 0.144-0.242 0.32l1.766 6.188c0.050 0.177 0.054 0.466 0.009 0.644l-0.77 2.995c-0.046 0.178 0.066 0.323 0.25 0.323h3.896c0.183 0 0.37-0.145 0.416-0.323l0.77-2.995c0.045-0.179 0.173-0.443 0.284-0.59l9.955-13.212c0.111-0.147 0.051-0.266-0.132-0.265l-1.046 0.006zM62.549 80.777v-0.003c-0.023 0.198-0.206 0.345-0.39 0.345h-4.998c-0.173 0-0.261-0.117-0.235-0.262l0.005-0.012-0.003 0.002 0.002-0.016 0.023-0.085c0.477-1.269 1.449-2.102 3.277-2.102 2.058-0.001 2.459 1.004 2.32 2.134zM61.083 75.009c-6.415 0-7.935 3.894-8.788 7.824-0.852 4.006-0.78 7.751 5.859 7.751l1.863-0.003c1.753-0.007 3.512-0.020 4.223-0.026 0.182-0.003 0.36-0.149 0.398-0.328l0.321-1.569 0.32-1.567c0.037-0.179-0.083-0.327-0.266-0.327h-5.968c-2.374 0-3.079-0.63-2.819-2.485h9.545c0.152-0.002 0.292-0.107 0.348-0.246l0.023-0.083-0.001 0.001c1.416-5.343 1.010-8.941-5.058-8.942zM30.762 80.757l-0.091 0.32v0.001l-1.441 5.105c-0.049 0.177-0.241 0.321-0.424 0.321h-3.813c-2.892 0-3.597-2.262-2.892-5.598 0.704-3.412 2.084-5.534 4.931-5.748 3.891-0.294 4.669 2.442 3.729 5.6zM33.378 86.308s1.798-4.366 2.205-6.886c0.557-3.374-1.133-8.27-7.659-8.27-6.489 0-9.308 4.673-10.383 9.753-1.075 5.117 0.334 9.604 6.786 9.567l9.848-0.036c0.183-0.002 0.37-0.147 0.417-0.323l0.829-3.161c0.046-0.178-0.066-0.323-0.249-0.325l-1.589-0.009c-0.155-0.001-0.245-0.102-0.226-0.236l0.021-0.074zM65.503 83.385c0 0.121-0.098 0.22-0.219 0.22s-0.219-0.098-0.219-0.22c0-0.12 0.098-0.218 0.219-0.218s0.219 0.098 0.219 0.218z"></path>
</svg>
<svg id="icon-js" width="100" height="100" viewBox="0 0 100 100" x="0" y="116">
<path fill="#f0db4f" d="M1.1 1.1h97.8v97.801h-97.8z"></path>
<path fill="#323330" d="M90.896 75.575c-0.716-4.462-3.626-8.209-12.244-11.704-2.994-1.376-6.331-2.361-7.326-4.63-0.353-1.32-0.4-2.064-0.177-2.863 0.641-2.594 3.737-3.402 6.191-2.659 1.58 0.53 3.077 1.748 3.979 3.691 4.22-2.733 4.212-2.715 7.159-4.593-1.079-1.673-1.655-2.445-2.361-3.16-2.538-2.835-5.997-4.295-11.528-4.184l-2.881 0.373c-2.761 0.698-5.392 2.147-6.935 4.090-4.63 5.253-3.309 14.447 2.324 18.23 5.55 4.166 13.703 5.113 14.745 9.009 1.013 4.769-3.505 6.313-7.995 5.764-3.309-0.688-5.15-2.37-7.14-5.429-3.662 2.12-3.662 2.12-7.428 4.285 0.893 1.952 1.831 2.836 3.328 4.527 7.084 7.186 24.813 6.833 27.992-4.044 0.129-0.373 0.985-2.864 0.297-6.704zM54.267 46.049h-9.148l-0.038 23.65c0 5.030 0.26 9.641-0.558 11.054-1.338 2.78-4.806 2.435-6.387 1.896-1.609-0.791-2.427-1.915-3.374-3.504-0.26-0.456-0.455-0.809-0.521-0.837l-7.438 4.555c1.237 2.538 3.059 4.741 5.392 6.173 3.486 2.092 8.171 2.734 13.071 1.609 3.189-0.929 5.941-2.853 7.381-5.782 2.083-3.84 1.636-8.488 1.617-13.628 0.047-8.387 0.001-16.772 0.001-25.185z"></path>
</svg>
<svg id="icon-meteor" width="100" height="100" viewBox="0 0 100 100" x="116" y="116">
<path fill="#df5052" d="M93.984 51.094c0.938 0 1.641-0.703 1.641-1.641 0-0.391-0.156-0.781-0.391-1.016-0.078-0.156-21.875-20.156-21.875-20.156l19.219 21.953c0.234 0.547 0.781 0.859 1.406 0.859zM98.438 62.266l-0.156-0.156-47.5-43.359 43.672 47.5c0.469 0.469 1.172 0.781 1.953 0.781 1.563 0 2.813-1.25 2.813-2.813 0-0.703-0.313-1.406-0.781-1.953zM77.422 91.641l-68.75-63.672 63.359 69.141c0.703 0.781 1.719 1.328 2.891 1.328 2.109 0 3.828-1.719 3.828-3.828 0-1.172-0.469-2.266-1.328-2.969zM0.781 1.563l84.141 89.609c0.703 0.703 1.641 1.094 2.656 1.094 2.109 0 3.828-1.719 3.828-3.828 0-0.781-0.234-1.563-0.703-2.188-0.234-0.391-89.922-84.688-89.922-84.688zM96.406 74.063l-68.75-63.672 63.359 69.141c0.703 0.781 1.719 1.328 2.891 1.328 2.109 0 3.828-1.719 3.828-3.828 0-1.25-0.547-2.266-1.328-2.969zM63.203 93.438l-0.156-0.156-47.5-43.359 43.672 47.5c0.469 0.469 1.172 0.781 1.953 0.781 1.563 0 2.813-1.25 2.813-2.812 0-0.781-0.313-1.406-0.781-1.953zM26.641 71.641l19.219 21.953c0.313 0.469 0.781 0.859 1.406 0.859 0.938 0 1.641-0.703 1.641-1.641 0-0.391-0.156-0.781-0.391-1.016-0.156-0.078-21.875-20.156-21.875-20.156z"></path>
</svg>
<svg id="icon-mongodb" width="100" height="100" viewBox="0 0 100 100" x="232" y="116">
<path fill="#94795d" d="M68.171 78.234c0.132-0.254 0.259-0.478 0.366-0.71 0.068-0.148 0.173-0.178 0.32-0.174 0.885 0.025 1.77 0.052 2.656 0.061 0.752 0.008 1.506-0.006 2.259-0.015 0.848-0.010 1.697-0.055 2.545-0.030 1.129 0.033 2.229 0.254 3.25 0.756 1.22 0.601 2.142 1.516 2.771 2.721 0.402 0.77 0.634 1.586 0.727 2.453 0.134 1.256 0.046 2.484-0.352 3.685-0.494 1.489-1.431 2.629-2.734 3.483-1.002 0.657-2.102 1.045-3.28 1.267-1.247 0.235-2.498 0.159-3.748 0.163-1.372 0.005-2.743-0.024-4.115-0.040-0.24-0.002-0.274-0.048-0.211-0.277l0.059-0.211c0.134-0.42 0.205-0.439 0.632-0.509 0.295-0.048 0.602-0.159 0.849-0.323 0.144-0.095 0.203-0.344 0.259-0.535 0.048-0.167 0.051-0.351 0.052-0.527 0.020-2.676 0.040-5.351 0.051-8.025 0.002-0.676-0.013-1.353-0.051-2.028-0.027-0.473-0.279-0.796-0.841-0.908-0.438-0.087-0.878-0.154-1.318-0.231l-0.148-0.046zM80.73 84.713c-0.059-0.533-0.088-1.070-0.184-1.595-0.228-1.26-0.78-2.358-1.748-3.218-1.566-1.39-3.452-1.604-5.429-1.438-0.45 0.038-0.547 0.191-0.554 0.654-0.011 0.656-0.022 1.313-0.023 1.969-0.003 2.081-0.003 4.162 0 6.244 0.001 0.592 0.007 1.184 0.024 1.775 0.019 0.605 0.238 1.116 0.83 1.351 0.934 0.37 1.916 0.413 2.895 0.263 1.565-0.24 2.659-1.152 3.394-2.518 0.581-1.084 0.745-2.268 0.794-3.485zM84.534 91.799c-0.019-0.324 0.114-0.592 0.278-0.838 0.045-0.066 0.198-0.063 0.303-0.084l0.895-0.177c0.316-0.067 0.483-0.28 0.527-0.59 0.030-0.205 0.058-0.412 0.060-0.619 0.020-1.638 0.038-3.277 0.046-4.915 0.008-1.641 0.002-3.281 0.002-4.922l-0.007-0.313c-0.032-0.527-0.287-0.801-0.81-0.878l-1.135-0.173c-0.14-0.019-0.191-0.086-0.14-0.21 0.087-0.212 0.171-0.431 0.295-0.622 0.046-0.070 0.202-0.098 0.306-0.095 0.542 0.008 1.084 0.048 1.627 0.048l4.72-0.028c0.909-0.001 1.787 0.158 2.603 0.593 0.898 0.478 1.4 1.218 1.544 2.226 0.15 1.059-0.171 1.951-0.945 2.659-0.318 0.292-0.73 0.483-1.098 0.72l-0.12 0.075c0.342 0.126 0.668 0.234 0.985 0.364 0.928 0.38 1.666 0.975 2.057 1.924 0.309 0.749 0.309 1.53 0.126 2.307-0.284 1.216-1.085 2.024-2.127 2.636-0.977 0.574-2.035 0.909-3.162 0.965-1.039 0.052-2.083 0.033-3.124 0.045l-0.603 0.003c-1.003-0.023-2.007-0.048-3.011-0.075l-0.091-0.025zM88.86 87.042h0.010c0 0.514-0.007 1.028 0.002 1.542 0.006 0.333-0.005 0.675 0.066 0.995 0.108 0.479 0.327 0.911 0.864 1.048 0.726 0.187 1.467 0.224 2.202 0.097 0.92-0.16 1.653-0.621 2.055-1.497 0.298-0.651 0.343-1.341 0.241-2.045-0.136-0.928-0.629-1.602-1.448-2.043-0.538-0.29-1.111-0.467-1.722-0.491-0.684-0.026-1.37-0.027-2.054-0.048-0.192-0.005-0.219 0.092-0.218 0.25 0.004 0.73 0.002 1.46 0.002 2.191zM90.317 83.546c0.374-0.019 0.798-0.024 1.219-0.066 0.806-0.080 1.374-0.486 1.67-1.257 0.151-0.391 0.145-0.795 0.148-1.202 0.012-1.060-0.607-1.929-1.614-2.288-0.777-0.277-1.579-0.282-2.385-0.26-0.327 0.009-0.473 0.152-0.477 0.48l-0.048 4.288c-0.002 0.17 0.071 0.244 0.237 0.249l1.251 0.055z"></path>
<path fill="#50382b" d="M8.237 90.975l-0.057 0.737c-0.531 0-1.021-0.004-1.511 0.002-0.923 0.009-1.845 0.024-2.769 0.037l-0.089 0.005c-0.132-0.016-0.372-0.016-0.378-0.055-0.039-0.22-0.027-0.45-0.016-0.677 0.001-0.026 0.091-0.059 0.143-0.071l0.718-0.16c0.448-0.116 0.605-0.309 0.627-0.772 0.024-0.521 0.048-1.043 0.051-1.564 0.007-1.283-0.001-2.564 0.005-3.847 0.001-0.3-0.103-0.523-0.383-0.645-0.333-0.147-0.667-0.291-1.004-0.427-0.159-0.064-0.366-0.099-0.348-0.313 0.019-0.218 0.22-0.275 0.409-0.318 0.783-0.179 1.566-0.353 2.347-0.544 0.252-0.062 0.492-0.166 0.793-0.27 0.016 0.162 0.045 0.317 0.041 0.472l-0.046 0.735c-0.001 0.083 0.042 0.194 0.104 0.24 0.038 0.029 0.163-0.023 0.226-0.072 0.667-0.508 1.373-0.946 2.179-1.202 1.248-0.396 2.319-0.029 3.069 1.047 0.264 0.379 0.265 0.379 0.631 0.114 0.629-0.457 1.287-0.86 2.023-1.126 1.616-0.584 3.168 0.157 3.73 1.784 0.205 0.591 0.283 1.201 0.281 1.824l-0.015 4.139c-0.001 0.341 0.113 0.536 0.438 0.642 0.365 0.12 0.743 0.202 1.154 0.309l-0.095 0.712c-0.467 0-0.897-0.003-1.327 0.001-1.050 0.009-2.1 0.015-3.149 0.039-0.183 0.005-0.23-0.041-0.24-0.212-0.030-0.548-0.035-0.547 0.48-0.67l0.173-0.045c0.504-0.138 0.672-0.292 0.676-0.803 0.012-1.467 0.042-2.938-0.032-4.402-0.077-1.519-1.283-2.327-2.755-1.938-0.48 0.127-0.916 0.348-1.32 0.636-0.137 0.098-0.162 0.21-0.152 0.381 0.041 0.647 0.067 1.295 0.073 1.942 0.009 1.134-0.005 2.267 0 3.402 0.002 0.459 0.159 0.635 0.612 0.741l0.799 0.184c0.009 0.216 0.018 0.431 0.008 0.647-0.006 0.135-0.111 0.147-0.228 0.145-0.655-0.016-1.312-0.038-1.967-0.037-0.798 0.002-1.595 0.024-2.391 0.038h-0.188c0-0.229-0.011-0.448 0.008-0.666 0.004-0.052 0.096-0.126 0.159-0.142l0.786-0.166c0.334-0.082 0.493-0.253 0.512-0.592 0.089-1.57 0.153-3.141 0.005-4.711-0.029-0.305-0.128-0.614-0.255-0.895-0.402-0.889-1.308-1.26-2.352-0.993-0.496 0.127-0.944 0.354-1.367 0.641-0.2 0.136-0.295 0.316-0.295 0.543 0 1.566 0.005 3.133 0.010 4.698l0.009 0.604c0.009 0.421 0.188 0.643 0.606 0.734 0.269 0.061 0.541 0.102 0.845 0.159z"></path>
<path fill="#4f382b" d="M55.47 82.254c0.121 0.589 0.119 1.119-0.314 1.52-0.43 0.399-0.973 0.265-1.504 0.176 0.049 0.28 0.104 0.517 0.13 0.758 0.193 1.788-0.577 3.116-2.235 3.874-0.627 0.286-1.291 0.392-1.97 0.447-0.337 0.027-0.633 0.284-0.665 0.562-0.033 0.281 0.144 0.57 0.497 0.655 0.416 0.099 0.851 0.127 1.278 0.177 0.917 0.105 1.845 0.152 2.751 0.316 1.37 0.247 2.135 1.443 1.894 2.82-0.215 1.225-0.924 2.116-1.913 2.8-1.666 1.155-3.495 1.492-5.441 0.903-1.113-0.337-1.898-1.070-2.17-2.254-0.136-0.593 0.009-1.13 0.455-1.532 0.53-0.477 1.108-0.902 1.663-1.352l0.18-0.18-0.206-0.145c-0.566-0.269-1.020-0.637-1.195-1.276-0.060-0.216 0.002-0.359 0.186-0.47 0.313-0.188 0.623-0.38 0.932-0.574 0.145-0.091 0.289-0.184 0.424-0.289 0.184-0.141 0.168-0.245-0.052-0.327-0.513-0.189-0.968-0.463-1.321-0.885-0.59-0.704-0.757-1.542-0.709-2.427 0.076-1.383 0.827-2.294 2.047-2.88 1.451-0.696 2.906-0.74 4.385-0.105 0.547 0.234 1.123 0.284 1.71 0.244 0.438-0.031 0.821-0.197 1.164-0.555zM50.123 92.161c-1.089-0.009-1.43 0.125-2.070 0.776-0.716 0.73-0.712 1.741 0.002 2.474 0.542 0.555 1.219 0.816 1.971 0.894 0.879 0.091 1.745 0.054 2.543-0.386 0.852-0.471 1.275-1.346 1.084-2.227-0.159-0.727-0.695-1.060-1.347-1.252-0.742-0.217-1.509-0.259-2.184-0.279zM47.984 85.202c0.040 0.302 0.056 0.609 0.123 0.905 0.174 0.767 0.508 1.441 1.271 1.783 0.896 0.402 2.041 0.23 2.433-1.028 0.269-0.862 0.236-1.717-0.088-2.558-0.145-0.375-0.377-0.692-0.711-0.925-0.778-0.543-2.182-0.615-2.754 0.585-0.186 0.39-0.259 0.805-0.274 1.238z"></path>
<path fill="#4f372b" d="M36.992 82.061c0.029 0.134 0.087 0.285 0.088 0.438 0.002 0.29-0.029 0.58-0.045 0.87v0.252l0.245-0.187c0.672-0.553 1.394-1.024 2.234-1.278 1.517-0.457 3.033 0.373 3.527 1.919 0.188 0.587 0.262 1.191 0.269 1.805 0.016 1.364 0.025 2.728 0.039 4.092 0.005 0.49 0.061 0.577 0.524 0.719 0.263 0.080 0.534 0.137 0.805 0.179 0.149 0.023 0.213 0.082 0.205 0.228l0.002 0.134c-0.005 0.565-0.045 0.591-0.592 0.589-1.311-0.002-2.621 0.005-3.932 0.016-0.391 0.003-0.391 0.015-0.43-0.371l-0.008-0.222c0.024-0.333 0.032-0.33 0.359-0.378 0.22-0.033 0.439-0.084 0.654-0.14 0.221-0.057 0.327-0.22 0.357-0.439 0.015-0.111 0.034-0.222 0.034-0.333-0.019-1.491 0.005-2.983-0.076-4.471-0.066-1.204-0.984-1.921-2.193-1.839-0.593 0.041-1.129 0.239-1.618 0.58-0.323 0.226-0.388 0.552-0.386 0.902 0.006 1.394 0.020 2.787 0.034 4.182 0.003 0.305 0.012 0.611 0.041 0.914 0.030 0.331 0.147 0.465 0.472 0.537 0.311 0.069 0.628 0.109 0.96 0.164l0.028 0.256c0.011 0.598-0.052 0.642-0.632 0.64-1.355-0.005-2.711 0.003-4.066 0.018-0.213 0.003-0.304-0.064-0.298-0.272l-0.003-0.089c-0.035-0.538-0.020-0.559 0.49-0.646l0.241-0.048c0.552-0.124 0.693-0.271 0.701-0.831 0.026-1.774 0.035-3.548 0.053-5.322 0.002-0.255-0.094-0.452-0.331-0.558-0.333-0.147-0.669-0.287-1.005-0.425-0.186-0.077-0.398-0.125-0.405-0.382-0.005-0.181 0.189-0.341 0.454-0.395 0.532-0.108 1.069-0.198 1.595-0.33 0.523-0.13 1.038-0.305 1.611-0.477z"></path>
<path fill="#4f382b" d="M66.301 86.695c-0.025 1.657-0.455 2.997-1.627 4.002-1.484 1.276-3.8 1.709-5.693 0.755-0.808-0.407-1.402-1.031-1.788-1.841-0.593-1.246-0.741-2.556-0.432-3.898 0.306-1.327 1.11-2.289 2.313-2.912 1.238-0.64 2.541-0.89 3.915-0.554 1.738 0.424 2.987 1.841 3.236 3.646 0.045 0.316 0.062 0.637 0.077 0.802zM64.287 87.593l-0.067-0.008c0-0.156 0.009-0.313-0.002-0.469-0.057-0.973-0.276-1.901-0.84-2.716-0.535-0.772-1.264-1.227-2.212-1.294-1.062-0.075-1.954 0.519-2.267 1.603-0.47 1.628-0.311 3.215 0.516 4.706 0.36 0.65 0.894 1.13 1.609 1.382 1.401 0.493 2.643-0.145 3.008-1.58 0.134-0.53 0.173-1.084 0.256-1.626z"></path>
<path fill="#4f372b" d="M31.89 86.823c-0.029 1.189-0.309 2.288-1.044 3.244-0.787 1.023-1.868 1.57-3.098 1.801-1.454 0.272-2.82 0.025-3.988-0.951-0.555-0.464-0.934-1.059-1.184-1.735-0.41-1.109-0.512-2.246-0.26-3.405 0.27-1.24 0.97-2.188 2.055-2.823 1.255-0.734 2.609-1.061 4.055-0.731 1.859 0.425 2.933 1.637 3.33 3.471 0.080 0.37 0.091 0.753 0.134 1.13zM29.854 87.608l-0.054-0.008v-0.223c-0.030-1.091-0.244-2.13-0.895-3.036-0.482-0.673-1.127-1.095-1.955-1.213-1.348-0.192-2.23 0.608-2.522 1.695-0.381 1.42-0.262 2.822 0.328 4.168 0.368 0.839 0.949 1.493 1.842 1.81 1.392 0.495 2.653-0.16 3.005-1.589 0.13-0.523 0.169-1.068 0.249-1.604z"></path>
<path fill="#439934" d="M64.345 26.206c0.959 2.771 1.648 5.6 1.875 8.531 0.281 3.638 0.153 7.25-0.614 10.827l-0.098 0.286c-0.241 0.001-0.486-0.030-0.721 0.007-1.987 0.313-3.971 0.636-5.956 0.958-2.052 0.333-4.106 0.652-6.155 1.007-0.726 0.125-1.624-0.024-1.917 0.979l-0.141 0.048 0.099-5.998-0.101-14.473 0.956-0.164c1.563-0.255 3.127-0.516 4.692-0.765 1.867-0.296 3.736-0.585 5.605-0.874 0.825-0.127 1.651-0.245 2.476-0.368z"></path>
<path fill="#45a538" d="M48.645 66.337c-1.009-0.867-2.052-1.696-3.019-2.609-5.202-4.906-9.007-10.682-10.881-17.645-0.516-1.916-0.86-3.863-0.971-5.843-0.078-1.386-0.19-2.784-0.091-4.163 0.26-3.666 0.791-7.298 1.866-10.83l0.059-0.082c0.105 0.139 0.255 0.262 0.308 0.42 1.050 3.091 2.091 6.184 3.128 9.28 3.257 9.727 6.51 19.457 9.773 29.183 0.064 0.19 0.229 0.345 0.348 0.516l-0.519 1.772z"></path>
<path fill="#46a037" d="M64.345 26.206c-0.826 0.123-1.652 0.241-2.476 0.368-1.869 0.289-3.738 0.578-5.605 0.874-1.565 0.248-3.128 0.509-4.692 0.765l-0.956 0.164-0.008-0.623c-0.032-0.512-0.085-1.025-0.092-1.538l-0.107-9.808c-0.025-2.046-0.063-4.092-0.104-6.137-0.026-1.271-0.053-2.543-0.11-3.813-0.031-0.682-0.141-1.361-0.185-2.043-0.026-0.392 0.009-0.787 0.017-1.181 0.487 0.945 0.965 1.896 1.466 2.834 0.791 1.482 2.053 2.574 3.19 3.766 4.489 4.712 7.676 10.187 9.662 16.373z"></path>
<path fill="#409433" d="M50.619 48.849l0.141-0.048c0.293-1.003 1.191-0.854 1.917-0.979 2.048-0.355 4.102-0.674 6.155-1.007 1.985-0.321 3.97-0.645 5.956-0.958 0.235-0.037 0.48-0.006 0.721-0.007-0.371 1.325-0.663 2.679-1.134 3.967-0.535 1.461-1.182 2.888-1.869 4.286-1.027 2.090-2.305 4.040-3.791 5.827-1.145 1.377-2.422 2.651-3.701 3.908-0.708 0.695-1.541 1.261-2.317 1.886l-0.202-0.138-0.724-0.619-0.749-1.644c-0.516-1.923-0.787-3.881-0.832-5.872l0.014-0.334 0.102-1.448c0.034-0.495 0.079-0.988 0.1-1.483 0.075-1.778 0.142-3.558 0.213-5.337z"></path>
<path fill="#4faa41" d="M50.619 48.849c-0.070 1.78-0.137 3.56-0.213 5.34-0.021 0.495-0.066 0.989-0.1 1.483l-0.456 0.173c-1.014-2.985-2.029-5.939-3.021-8.9-1.641-4.899-3.263-9.805-4.902-14.706-1.323-3.955-2.657-7.907-3.998-11.856-0.063-0.184-0.243-0.33-0.368-0.493l2.922-5.373c0.101 0.174 0.233 0.337 0.296 0.525 1.352 4 2.701 8.001 4.038 12.005 1.741 5.211 3.47 10.424 5.209 15.636 0.070 0.208 0.184 0.4 0.293 0.634l0.4-0.466c-0.034 2-0.066 3.998-0.099 5.998z"></path>
<path fill="#4aa73c" d="M37.559 19.889c0.126 0.163 0.305 0.309 0.368 0.493 1.341 3.949 2.676 7.901 3.998 11.856 1.639 4.901 3.26 9.807 4.902 14.706 0.992 2.961 2.007 5.914 3.021 8.9l0.456-0.173-0.102 1.448-0.093 0.334c-0.159 1.585-0.292 3.173-0.486 4.755-0.097 0.793-0.304 1.571-0.461 2.355-0.118-0.171-0.284-0.327-0.348-0.516-3.263-9.726-6.516-19.455-9.773-29.183-1.037-3.096-2.079-6.19-3.128-9.28-0.053-0.157-0.203-0.28-0.308-0.42l1.953-5.277z"></path>
<path fill="#57ae47" d="M50.717 42.851l-0.4 0.466c-0.109-0.234-0.223-0.426-0.293-0.634-1.739-5.212-3.468-10.425-5.209-15.636-1.338-4.005-2.687-8.005-4.038-12.005-0.063-0.188-0.195-0.351-0.296-0.525l3.613-4.753c0.114 0.152 0.277 0.287 0.335 0.458 1.003 2.937 1.997 5.877 2.986 8.82 0.923 2.748 1.833 5.5 2.767 8.244 0.063 0.184 0.28 0.313 0.426 0.47l0.008 0.623 0.101 14.473z"></path>
<path fill="#60b24f" d="M50.609 27.754c-0.146-0.155-0.363-0.285-0.426-0.47-0.934-2.744-1.844-5.495-2.767-8.244-0.989-2.942-1.983-5.882-2.986-8.82-0.059-0.171-0.221-0.306-0.335-0.458 1.175-1.151 2.313-2.343 3.536-3.441 1.087-0.975 1.96-2.020 2.001-3.562l0.086-0.307 0.309 0.78c-0.008 0.394-0.043 0.789-0.017 1.181 0.045 0.682 0.155 1.361 0.185 2.043 0.057 1.27 0.084 2.541 0.11 3.813 0.041 2.045 0.079 4.091 0.104 6.138l0.107 9.808c0.008 0.513 0.062 1.026 0.093 1.538z"></path>
<path fill="#a9aa88" d="M49.163 64.564c0.157-0.784 0.364-1.562 0.461-2.355 0.194-1.581 0.327-3.17 0.486-4.755l0.040-0.006 0.039 0.007c0.045 1.991 0.316 3.948 0.832 5.872-0.105 0.139-0.253 0.262-0.309 0.418-0.434 1.223-0.843 2.457-1.279 3.68-0.059 0.167-0.227 0.298-0.343 0.444l-0.446-1.531 0.52-1.772z"></path>
<path fill="#b6b598" d="M49.090 67.868c0.116-0.147 0.284-0.277 0.343-0.444 0.436-1.223 0.845-2.456 1.279-3.68 0.055-0.156 0.204-0.279 0.309-0.418l0.749 1.644c-0.148 0.209-0.352 0.399-0.434 0.633l-1.434 4.212c-0.059 0.17-0.26 0.288-0.396 0.431l-0.416-2.379z"></path>
<path fill="#c2c1a7" d="M49.505 70.246c0.135-0.143 0.337-0.262 0.396-0.431l1.434-4.212c0.081-0.234 0.287-0.423 0.434-0.633l0.725 0.618c-0.35 0.346-0.545 0.746-0.427 1.252l-0.22 0.721c-0.1 0.123-0.245 0.231-0.295 0.373-0.501 1.434-0.978 2.877-1.483 4.31-0.064 0.181-0.241 0.324-0.366 0.485l-0.199-2.482z"></path>
<path fill="#cecdb7" d="M49.704 72.727c0.125-0.161 0.302-0.304 0.366-0.485 0.505-1.434 0.983-2.876 1.483-4.31 0.049-0.141 0.195-0.248 0.295-0.373l-0.304 3.309c-0.081 0.094-0.198 0.176-0.237 0.284l-1.011 2.897c-0.071 0.198-0.207 0.374-0.313 0.559-0.095-0.123-0.263-0.243-0.271-0.371-0.030-0.502-0.009-1.007-0.006-1.511z"></path>
<path fill="#dbdac7" d="M49.982 74.61c0.106-0.185 0.242-0.362 0.313-0.559l1.011-2.897c0.039-0.109 0.157-0.191 0.238-0.284l0.008 2.172-0.727 1.865-0.842-0.296z"></path>
<path fill="#ebe9dc" d="M50.824 74.906l0.727-1.865 0.15 2.206-0.877-0.341z"></path>
<path fill="#cecdb7" d="M52.067 66.839c-0.116-0.505 0.077-0.905 0.427-1.252l0.202 0.137-0.629 1.114z"></path>
<path fill="#4faa41" d="M50.189 57.455l-0.039-0.007-0.040 0.006 0.093-0.334-0.014 0.334z"></path>
</svg>
<svg id="icon-mysql" width="100" height="100" viewBox="0 0 100 100" x="348" y="116">
<path fill="#00618a" d="M1.563 70.67h3.209v-12.674l4.969 11.049c0.586 1.338 1.388 1.81 2.963 1.81s2.346-0.473 2.932-1.81l4.969-11.049v12.674h3.209v-12.653c0-1.234-0.494-1.832-1.512-2.14-2.438-0.761-4.074-0.102-4.815 1.544l-4.876 10.905-4.721-10.905c-0.71-1.645-2.377-2.304-4.815-1.544-1.019 0.309-1.513 0.905-1.513 2.14v12.654zM26.484 60.353h3.209v6.983c-0.030 0.379 0.122 1.27 1.88 1.298 0.897 0.014 6.923 0 6.98 0v-8.315h3.216c0.015 0-0.003 11.339-0.003 11.386 0.017 2.797-3.47 3.404-5.077 3.451h-10.134v-2.159c0.017 0 10.127 0.002 10.152-0.001 2.066-0.218 1.822-1.245 1.821-1.59v-0.842h-6.821c-3.173-0.029-5.195-1.414-5.221-3.008-0.002-0.146 0.070-7.132-0.001-7.202z"></path>
<path fill="#e48e00" d="M44.242 70.67h9.228c1.080 0 2.13-0.226 2.963-0.616 1.388-0.638 2.067-1.502 2.067-2.634v-2.345c0-0.926-0.771-1.791-2.284-2.366-0.802-0.309-1.791-0.473-2.748-0.473h-3.889c-1.296 0-1.913-0.391-2.067-1.255-0.030-0.103-0.030-0.185-0.030-0.288v-1.461c0-0.082 0-0.165 0.030-0.267 0.154-0.659 0.494-0.844 1.636-0.947l0.309-0.020h9.166v-2.139h-9.012c-1.296 0-1.975 0.082-2.592 0.267-1.913 0.597-2.748 1.543-2.748 3.189v1.872c0 1.441 1.637 2.675 4.383 2.963 0.309 0.020 0.617 0.041 0.926 0.041h3.334c0.123 0 0.247 0 0.34 0.020 1.019 0.082 1.45 0.268 1.759 0.638 0.185 0.185 0.246 0.371 0.246 0.576v1.873c0 0.226-0.154 0.514-0.462 0.761-0.277 0.247-0.741 0.412-1.358 0.453l-0.34 0.020h-8.858v2.139zM78.524 66.947c0 2.201 1.636 3.435 4.937 3.683 0.309 0.020 0.617 0.041 0.926 0.041h8.364v-2.139h-8.425c-1.883 0-2.592-0.473-2.592-1.605v-11.069h-3.209v11.090zM60.549 67.058v-7.629c0-1.938 1.361-3.113 4.052-3.484 0.278-0.041 0.588-0.062 0.866-0.062h6.093c0.309 0 0.587 0.020 0.896 0.062 2.691 0.371 4.052 1.546 4.052 3.484v7.629c0 1.573-0.578 2.414-1.91 2.963l3.162 2.854h-3.727l-2.558-2.309-2.575 0.163h-3.434c-0.587 0-1.205-0.082-1.886-0.268-2.041-0.556-3.031-1.629-3.031-3.402zM64.013 66.873c0 0.103 0.030 0.207 0.062 0.33 0.185 0.887 1.021 1.381 2.288 1.381h2.916l-2.678-2.418h3.727l2.335 2.109c0.431-0.23 0.714-0.58 0.813-1.031 0.030-0.103 0.030-0.206 0.030-0.309v-7.319c0-0.082 0-0.186-0.030-0.289-0.186-0.825-1.021-1.298-2.258-1.298h-4.856c-1.422 0-2.35 0.619-2.35 1.587v7.256z"></path>
<path fill="#00618a" d="M95.575 52.306c-1.973-0.054-3.48 0.13-4.769 0.673-0.366 0.155-0.95 0.159-1.009 0.617 0.201 0.212 0.232 0.527 0.392 0.786 0.308 0.498 0.827 1.165 1.291 1.514 0.505 0.382 1.027 0.791 1.571 1.123 0.965 0.589 2.043 0.925 2.973 1.514 0.548 0.348 1.091 0.786 1.627 1.179 0.265 0.193 0.441 0.495 0.786 0.616v-0.055c-0.18-0.23-0.227-0.545-0.393-0.786l-0.73-0.73c-0.713-0.947-1.618-1.777-2.581-2.468-0.767-0.551-2.484-1.295-2.805-2.188l-0.056-0.055c0.544-0.062 1.181-0.259 1.683-0.393 0.844-0.227 1.598-0.168 2.469-0.393l1.178-0.337v-0.223c-0.44-0.452-0.755-1.050-1.234-1.459-1.255-1.070-2.627-2.138-4.039-3.030-0.783-0.494-1.751-0.815-2.581-1.234-0.278-0.141-0.769-0.214-0.954-0.449-0.437-0.555-0.673-1.259-1.010-1.907-0.703-1.355-1.395-2.837-2.020-4.264-0.425-0.973-0.703-1.932-1.234-2.805-2.548-4.188-5.29-6.716-9.537-9.201-0.904-0.529-1.992-0.737-3.141-1.009l-1.852-0.112c-0.376-0.157-0.768-0.618-1.122-0.841-1.408-0.889-5.017-2.823-6.059-0.28-0.658 1.605 0.984 3.17 1.571 3.984 0.412 0.57 0.94 1.209 1.234 1.851 0.194 0.422 0.227 0.845 0.393 1.291 0.407 1.098 0.763 2.295 1.29 3.309 0.266 0.514 0.561 1.055 0.898 1.515 0.206 0.281 0.561 0.406 0.616 0.841-0.346 0.484-0.366 1.237-0.561 1.851-0.877 2.765-0.546 6.202 0.73 8.248 0.391 0.629 1.313 1.976 2.58 1.459 1.109-0.452 0.862-1.851 1.179-3.086 0.072-0.279 0.027-0.485 0.168-0.673v0.056l1.010 2.020c0.748 1.204 2.073 2.461 3.198 3.31 0.583 0.44 1.042 1.202 1.795 1.459v-0.057h-0.055c-0.147-0.227-0.374-0.321-0.562-0.505-0.439-0.43-0.927-0.965-1.29-1.459-1.023-1.387-1.926-2.907-2.749-4.488-0.393-0.755-0.734-1.587-1.066-2.356-0.128-0.296-0.127-0.745-0.392-0.897-0.364 0.563-0.898 1.018-1.179 1.683-0.448 1.063-0.506 2.359-0.673 3.702l-0.113 0.055c-0.782-0.188-1.056-0.993-1.347-1.683-0.734-1.745-0.871-4.555-0.224-6.563 0.167-0.52 0.923-2.157 0.616-2.637-0.146-0.479-0.628-0.755-0.897-1.123-0.334-0.452-0.667-1.048-0.898-1.571-0.602-1.36-0.882-2.888-1.514-4.263-0.303-0.658-0.814-1.323-1.234-1.907-0.465-0.648-0.986-1.125-1.347-1.908-0.128-0.278-0.302-0.724-0.113-1.010 0.060-0.193 0.147-0.273 0.337-0.337 0.325-0.251 1.231 0.084 1.57 0.224 0.9 0.374 1.651 0.73 2.413 1.234 0.366 0.243 0.735 0.712 1.178 0.841h0.505c0.79 0.181 1.675 0.055 2.413 0.28 1.305 0.397 2.473 1.013 3.534 1.684 3.234 2.042 5.877 4.948 7.686 8.416 0.291 0.559 0.417 1.091 0.673 1.683 0.517 1.194 1.169 2.423 1.683 3.591 0.513 1.165 1.014 2.341 1.74 3.31 0.381 0.509 1.855 0.783 2.524 1.066 0.47 0.198 1.238 0.405 1.683 0.673 0.849 0.512 1.673 1.123 2.469 1.684 0.398 0.283 1.622 0.898 1.683 1.405zM70.498 30.932c-0.411-0.008-0.702 0.045-1.010 0.113v0.055h0.056c0.196 0.404 0.542 0.663 0.785 1.010l0.562 1.178 0.055-0.055c0.348-0.245 0.506-0.636 0.505-1.234-0.14-0.147-0.16-0.33-0.28-0.505-0.159-0.234-0.47-0.366-0.673-0.562z"></path>
</svg>
<svg id="icon-node" width="100" height="100" viewBox="0 0 100 100" x="464" y="116">
<path fill="#83cd29" d="M88.102 23.698l-34.451-20.004c-2.173-1.238-5.002-1.238-7.191 0l-34.819 20.004c-2.242 1.29-3.829 3.714-3.829 6.307v39.955c0 2.593 1.628 5.018 3.87 6.315l9.199 5.225c4.397 2.166 5.951 2.166 7.952 2.166 6.51 0 10.229-3.937 10.229-10.803v-39.445c0-0.557-0.29-1.386-0.837-1.386h-4.393c-0.556 0-1.802 0.829-1.802 1.385v39.445c0 3.044-2.753 6.073-7.898 3.5l-9.505-5.479c-0.331-0.18-0.565-0.541-0.565-0.923v-39.955c0-0.377 0.434-0.755 0.767-0.948l34.706-19.97c0.324-0.184 0.801-0.184 1.124 0l34.283 19.965c0.328 0.198 0.213 0.564 0.213 0.952v39.955c0 0.381 0.143 0.752-0.181 0.936l-34.442 19.981c-0.295 0.177-0.662 0.177-0.985 0l-8.834-5.273c-0.266-0.155-0.583-0.21-0.838-0.067-2.458 1.393-2.911 1.578-5.216 2.377-0.567 0.198-1.404 0.541 0.32 1.507l11.561 6.839c1.107 0.641 2.365 0.973 3.63 0.973 1.283 0 2.539-0.333 3.646-0.973l34.285-19.986c2.242-1.306 3.305-3.722 3.305-6.315v-39.955c0-2.593-1.063-5.011-3.304-6.307zM60.867 63.629c-9.161 0-11.179-2.527-11.852-7.083-0.078-0.491-0.495-1.077-0.994-1.077h-4.477c-0.554 0-0.999 0.672-0.999 1.223 0 5.833 3.171 12.9 18.323 12.9 10.968 0 17.256-4.262 17.256-11.804 0-7.478-5.052-9.441-15.689-10.848-10.752-1.421-11.844-2.139-11.844-4.658 0-2.077 0.925-4.846 8.886-4.846 7.113 0 9.735 1.527 10.814 6.321 0.092 0.451 0.504 0.774 0.969 0.774h4.495c0.277 0 0.541-0.112 0.734-0.309 0.188-0.213 0.287-0.479 0.262-0.765-0.696-8.256-6.181-12.104-17.275-12.104-9.868 0-15.755 4.167-15.755 11.152 0 7.577 5.857 9.67 15.33 10.607 11.332 1.111 12.213 2.767 12.213 4.996 0 3.871-3.108 5.52-10.398 5.52z"></path>
</svg>
<svg id="icon-react" width="100" height="100" viewBox="0 0 100 100" x="580" y="116">
<path fill="#61dafb" d="M57.266 37.109c0 4.013-3.253 7.266-7.266 7.266s-7.266-3.253-7.266-7.266c0-4.013 3.253-7.266 7.266-7.266s7.266 3.253 7.266 7.266z"></path>
<path fill="#61dafb" d="M50 63.828c5.703 5.547 11.328 8.828 15.859 8.828 1.484 0 2.891-0.313 4.063-1.016 4.063-2.344 5.547-8.203 4.141-16.563-0.234-1.484-0.547-2.969-0.938-4.531 1.563-0.469 2.969-0.938 4.375-1.406 7.891-3.047 12.266-7.266 12.266-11.875 0-4.688-4.375-8.906-12.266-11.875-1.406-0.547-2.812-1.016-4.375-1.406 0.391-1.563 0.703-3.047 0.938-4.531 1.328-8.516-0.156-14.453-4.219-16.797-1.172-0.703-2.578-1.016-4.063-1.016-4.453 0-10.156 3.281-15.859 8.828-5.625-5.547-11.25-8.828-15.781-8.828-1.484 0-2.891 0.313-4.063 1.016-4.063 2.344-5.547 8.203-4.141 16.563 0.234 1.484 0.547 2.969 0.938 4.531-1.563 0.469-2.969 0.938-4.375 1.406-7.891 3.047-12.266 7.266-12.266 11.875 0 4.688 4.375 8.906 12.266 11.875 1.406 0.547 2.813 1.016 4.375 1.406-0.391 1.563-0.703 3.047-0.938 4.531-1.328 8.359 0.156 14.297 4.141 16.563 1.172 0.703 2.578 1.016 4.063 1.016 4.531 0.156 10.156-3.125 15.859-8.594zM45.625 53.281c1.406 0.078 2.891 0.078 4.375 0.078s2.969 0 4.375-0.078c-1.406 1.875-2.891 3.594-4.375 5.234-1.484-1.641-2.969-3.359-4.375-5.234zM35.938 45.234c0.781 1.328 1.484 2.578 2.344 3.828-2.422-0.313-4.688-0.703-6.875-1.172 0.703-2.109 1.484-4.297 2.422-6.484 0.625 1.25 1.328 2.578 2.109 3.828zM31.406 26.406c2.187-0.469 4.453-0.859 6.875-1.172-0.781 1.25-1.563 2.5-2.344 3.828s-1.484 2.578-2.109 3.906c-1.016-2.266-1.797-4.453-2.422-6.563zM35.703 37.109c1.016-2.109 2.109-4.219 3.359-6.328 1.172-2.031 2.5-4.063 3.828-6.094 2.344-0.156 4.688-0.234 7.109-0.234 2.5 0 4.844 0.078 7.109 0.234 1.406 2.031 2.656 4.062 3.828 6.094 1.25 2.109 2.344 4.219 3.359 6.328-1.016 2.109-2.109 4.219-3.359 6.328-1.172 2.031-2.5 4.063-3.828 6.094-2.344 0.156-4.688 0.234-7.109 0.234-2.5 0-4.844-0.078-7.109-0.234-1.406-2.031-2.656-4.063-3.828-6.094-1.25-2.109-2.344-4.219-3.359-6.328zM66.25 32.891l-2.109-3.906c-0.781-1.328-1.484-2.578-2.344-3.828 2.422 0.312 4.688 0.703 6.875 1.172-0.703 2.187-1.484 4.375-2.422 6.562zM66.25 41.328c0.938 2.188 1.719 4.375 2.422 6.484-2.188 0.469-4.453 0.859-6.875 1.172 0.781-1.25 1.563-2.5 2.344-3.828 0.703-1.172 1.406-2.5 2.109-3.828zM68.047 68.438c-0.625 0.391-1.406 0.547-2.266 0.547-3.828 0-8.594-3.125-13.281-7.813 2.266-2.422 4.453-5.156 6.641-8.203 3.672-0.313 7.188-0.859 10.469-1.641 0.391 1.406 0.625 2.813 0.859 4.219 1.094 6.641 0.234 11.406-2.422 12.891zM72.109 27.266c8.75 2.5 13.984 6.328 13.984 9.844 0 3.047-3.594 6.094-9.922 8.516-1.25 0.469-2.656 0.938-4.063 1.328-1.016-3.203-2.266-6.484-3.828-9.844 1.563-3.359 2.891-6.641 3.828-9.844zM65.859 5.234c0.859 0 1.563 0.156 2.266 0.547 2.578 1.484 3.516 6.172 2.422 12.891-0.234 1.328-0.547 2.734-0.859 4.219-3.281-0.703-6.797-1.25-10.469-1.641-2.109-3.047-4.375-5.781-6.641-8.203 4.688-4.609 9.453-7.813 13.281-7.813zM54.375 20.938c-1.406-0.078-2.891-0.078-4.375-0.078s-2.969 0-4.375 0.078c1.406-1.875 2.891-3.594 4.375-5.234 1.484 1.641 2.969 3.437 4.375 5.234zM31.953 5.781c0.625-0.391 1.406-0.547 2.266-0.547 3.828 0 8.594 3.125 13.281 7.813-2.266 2.422-4.453 5.156-6.641 8.203-3.672 0.313-7.188 0.859-10.469 1.641-0.391-1.406-0.625-2.813-0.859-4.219-1.094-6.641-0.234-11.328 2.422-12.891zM27.891 46.953c-8.75-2.5-13.984-6.328-13.984-9.844 0-3.047 3.594-6.094 9.922-8.516 1.25-0.469 2.656-0.938 4.063-1.328 1.016 3.203 2.266 6.484 3.828 9.844-1.563 3.359-2.891 6.719-3.828 9.844zM29.531 55.547c0.234-1.328 0.547-2.734 0.859-4.219 3.281 0.703 6.797 1.25 10.469 1.641 2.109 3.047 4.375 5.781 6.641 8.203-4.688 4.609-9.453 7.813-13.281 7.813-0.859 0-1.563-0.156-2.266-0.547-2.656-1.484-3.516-6.25-2.422-12.891zM26.25 87.734c1.719-2.109 1.797-4.453 0.859-6.797s-2.891-3.438-5.313-3.516c-2.891-0.078-5.859 0-8.75 0h-0.547v20.234h2.344v-7.656h3.672c0.469 0 0.859 0.156 1.094 0.547l4.688 7.266c0.078 0.156 0.313 0.391 0.469 0.391h3.047c-1.875-2.891-3.672-5.625-5.547-8.438 1.641-0.234 3.047-0.781 3.984-2.031zM14.844 87.578v-7.734h0.859c1.797 0 3.672-0.078 5.469 0.078 2.109 0.078 3.594 1.719 3.594 3.828s-1.719 3.75-3.828 3.828c-1.875 0.078-3.75 0-6.094 0zM45.078 88.594c-1.25-5.469-6.25-6.875-10.078-5.156-2.969 1.328-4.297 3.906-4.375 7.109-0.078 2.422 0.625 4.609 2.5 6.25 2.109 1.875 4.688 2.109 7.344 1.641 1.484-0.313 2.813-1.016 3.828-2.109-0.391-0.547-0.781-1.094-1.172-1.563-2.187 1.875-4.609 2.5-7.266 1.25-1.719-0.859-2.578-2.969-2.734-4.531h12.109v-1.016c0.078-0.703 0-1.328-0.156-1.875zM33.281 89.844c-0.234-2.344 2.109-4.844 4.688-4.844 2.969-0.078 4.844 1.719 4.922 4.844h-9.609zM57.266 83.047c-1.172-0.234-2.422-0.313-3.594-0.234-1.875 0.156-3.516 1.016-4.844 2.422 0.391 0.547 0.703 1.094 1.172 1.719 0.156-0.156 0.313-0.313 0.469-0.391 1.25-1.172 2.734-1.797 4.531-1.641 1.406 0.078 2.734 0.547 3.125 1.953 0.313 1.094 0.234 2.266 0.313 3.438-0.234 0-0.313-0.078-0.391-0.156-1.875-1.563-3.984-1.875-6.25-1.328-2.109 0.547-3.438 2.188-3.594 4.297-0.156 2.422 0.938 4.219 3.047 5.078 1.328 0.547 2.813 0.547 4.219 0.234 1.094-0.234 1.563-0.859 3.125-1.719v1.016h2.188c0-3.125 0.078-6.953 0-10.547 0-2.266-1.328-3.672-3.516-4.141zM58.359 92.891c-0.078 0.234 0 0.469 0 0.703 0 1.641-0.391 2.187-1.953 2.812-1.094 0.391-2.266 0.547-3.438 0.156-1.328-0.391-2.266-1.563-2.266-2.891-0.078-1.328 0.781-2.656 2.109-3.047 1.797-0.625 3.438-0.234 4.922 0.859 0.469 0.391 0.781 0.781 0.625 1.406zM70.547 85.156c2.031-0.625 3.906-0.234 5.313 1.484l0.234 0.156c0.547-0.469 1.016-0.938 1.641-1.484-0.234-0.234-0.313-0.391-0.469-0.625-2.266-2.422-6.719-2.734-9.453-0.781-3.828 2.813-3.75 8.281-1.875 11.172 1.797 2.734 4.375 3.672 7.422 3.281 1.797-0.234 3.281-1.094 4.453-2.578-0.547-0.469-1.094-0.938-1.641-1.484-0.156 0.156-0.234 0.234-0.313 0.391-2.109 2.344-5.625 2.109-7.5-0.391-1.094-1.484-1.328-3.203-1.016-4.922 0.156-1.953 1.172-3.516 3.203-4.219zM86.797 95.781c-0.156 0.078-0.234 0.156-0.234 0.156-0.625 0.469-1.25 0.547-1.953 0.313-0.703-0.313-0.781-0.938-0.859-1.563v-8.906c0-0.156 0 0.156 0.078-0.625h2.969v-2.344h-3.125v-3.906h-2.344v4.219h-2.031c-0.156 0-0.391 0.156-0.391 0.313-0.078 0.547 0 0.938 0 1.719h2.5v10c0 1.25 0.313 2.344 1.406 2.969 1.172 0.703 3.438 0.547 4.453-0.313 0.156-0.078 0.234-0.391 0.234-0.469-0.234-0.469-0.469-1.016-0.703-1.563z"></path>
</svg>
</svg>
